<svg width="295" height="345" viewBox="0 0 295 345" fill="none" xmlns="http://www.w3.org/2000/svg">
<path d="M292.642 304.221C294.47 302.078 295.135 300.129 294.637 298.376C294.389 296.551 293.515 294.904 292.015 293.435C290.444 291.716 288.372 290.139 285.799 288.704C283.297 287.519 279.636 283.686 274.817 277.204C270.07 270.972 264.77 263.273 258.918 254.106C252.744 244.76 246.447 234.502 240.026 223.331C233.354 212.232 227.004 201.312 220.976 190.571C214.947 179.83 209.544 169.859 204.765 160.658C199.986 151.458 196.278 144.119 193.639 138.642C190.395 131.983 186.847 124.734 182.996 116.894C179.68 109.985 175.919 101.984 171.712 92.8917C167.435 83.5487 162.997 73.1681 158.401 61.7499L124.498 56.7599C119.67 55.9653 116.806 57.3201 115.906 60.8242C114.936 64.0778 116.607 69.9648 120.922 78.4851C122.954 82.7809 126.431 89.7796 131.352 99.4813C136.202 108.933 141.748 119.404 147.99 130.897C153.91 142.21 160.187 153.827 166.822 165.75C173.135 177.492 179.056 187.857 184.587 196.845C189.724 205.402 195.629 215.231 202.3 226.33C213.896 245.236 229.881 271.016 250.254 303.671C248.455 310.68 242.795 315.536 233.276 318.239C222.754 321.227 209.466 320.67 193.412 316.566C177.107 312.534 160.164 304.352 142.584 292.019C125.004 279.686 107.914 262.882 91.3145 241.608C74.3929 220.154 60.0906 193.625 48.4076 162.021C42.1749 144.841 38.6761 129.186 37.9115 115.055C37.1469 100.924 38.6153 88.4604 42.3168 77.6634C45.7677 66.9376 51.3621 58.0394 59.0998 50.969C66.587 43.9697 75.7165 38.9404 86.4884 35.8811C111.79 28.6953 140.956 31.782 173.988 45.141L167.009 13.4189C158.432 8.00394 149.477 4.59155 140.143 3.18173C130.487 1.59255 121.743 0.827547 113.909 0.886713C104.751 1.0511 95.7526 2.2531 86.9136 4.49271C70.881 9.04607 56.364 16.5529 43.3626 27.0133C30.0395 37.2943 19.7707 50.2272 12.5561 65.812C5.091 81.4679 1.18115 99.6334 0.826543 120.308C0.400794 140.733 4.65759 163.347 13.5969 188.151C18.7255 202.395 26.0359 216.698 35.5283 231.057C44.6991 245.237 55.427 258.703 67.7121 271.457C79.7467 284.282 93.0708 295.929 107.685 306.397C122.298 316.865 137.416 325.295 153.038 331.687C168.731 338.33 184.661 342.469 200.826 344.104C217.064 345.99 232.948 344.727 248.479 340.316C253.168 338.714 258.054 336.378 263.139 333.31C267.543 330.706 272.324 327.047 277.482 322.333C282.641 317.62 287.694 311.582 292.642 304.221Z" fill="#E0EDFF"/>
</svg>
