<svg width="295" height="345" fill="none" xmlns="http://www.w3.org/2000/svg"><path d="M292.642 304.221c1.828-2.143 2.493-4.092 1.995-5.845-.248-1.825-1.122-3.472-2.622-4.941-1.571-1.719-3.643-3.296-6.216-4.731-2.502-1.185-6.163-5.018-10.982-11.5-4.747-6.232-10.047-13.931-15.899-23.098-6.174-9.346-12.471-19.604-18.892-30.775a1270.479 1270.479 0 0 1-19.05-32.76c-6.029-10.741-11.432-20.712-16.211-29.913-4.779-9.2-8.487-16.539-11.126-22.016a7478.053 7478.053 0 0 0-10.643-21.748 1904.886 1904.886 0 0 1-11.284-24.002c-4.277-9.343-8.715-19.724-13.311-31.142l-33.903-4.99c-4.828-.795-7.692.56-8.592 4.064-.97 3.254.701 9.14 5.016 17.661 2.032 4.296 5.509 11.295 10.43 20.996 4.85 9.452 10.396 19.923 16.638 31.416a1542.463 1542.463 0 0 0 18.832 34.853c6.313 11.742 12.234 22.107 17.765 31.095 5.137 8.557 11.042 18.386 17.713 29.485 11.596 18.906 27.581 44.686 47.954 77.341-1.799 7.009-7.459 11.865-16.978 14.568-10.522 2.988-23.81 2.431-39.864-1.673-16.305-4.032-33.248-12.214-50.828-24.547-17.58-12.333-34.67-29.137-51.27-50.411-16.921-21.454-31.223-47.983-42.906-79.587-6.233-17.18-9.732-32.835-10.497-46.966-.764-14.131.704-26.595 4.406-37.392C45.767 66.938 51.362 58.04 59.1 50.97c7.487-7 16.616-12.029 27.388-15.088 25.302-7.186 54.468-4.099 87.5 9.26l-6.979-31.722c-8.577-5.415-17.532-8.827-26.866-10.237-9.656-1.59-18.4-2.354-26.234-2.295a118.178 118.178 0 0 0-26.995 3.606c-16.033 4.553-30.55 12.06-43.551 22.52C30.04 37.294 19.77 50.227 12.556 65.812 5.091 81.468 1.181 99.633.826 120.308c-.425 20.425 3.832 43.039 12.77 67.843 5.13 14.244 12.44 28.547 21.932 42.906 9.171 14.18 19.899 27.646 32.184 40.4 12.035 12.825 25.359 24.472 39.973 34.94 14.613 10.468 29.731 18.898 45.353 25.29 15.693 6.643 31.623 10.782 47.788 12.417 16.238 1.886 32.122.623 47.653-3.788 4.689-1.602 9.575-3.938 14.66-7.006 4.404-2.604 9.185-6.263 14.343-10.977 5.159-4.713 10.212-10.751 15.16-18.112z" fill="#E0EDFF"/></svg>